<svg width="207" height="201" viewBox="0 0 207 201" fill="none" xmlns="http://www.w3.org/2000/svg">
<path d="M0 8C0 3.58172 3.58172 0 8 0H199C203.418 0 207 3.58172 207 8V193C207 197.418 203.418 201 199 201H8C3.58172 201 0 197.418 0 193V8Z" fill="#16A34A"/>
<path d="M7 15C7 12.7909 8.79086 11 11 11H196C198.209 11 200 12.7909 200 15V185C200 187.209 198.209 189 196 189H11C8.79086 189 7 187.209 7 185V15Z" fill="#E4E4E7"/>
<rect x="92.7751" y="34" width="22.6056" height="26.0834" fill="#9333EA"/>
<circle cx="103.643" cy="101.382" r="32.6042" fill="#9333EA"/>
<rect x="114.511" y="167.895" width="22.6056" height="26.0834" transform="rotate(-180 114.511 167.895)" fill="#9333EA"/>
<rect x="143.737" y="44.4333" width="22.6056" height="26.0834" transform="rotate(43.4029 143.737 44.4333)" fill="#9333EA"/>
<rect x="63.5498" y="157.461" width="22.6056" height="26.0834" transform="rotate(-136.597 63.5498 157.461)" fill="#9333EA"/>
<rect x="169.286" y="89.6445" width="22.6056" height="26.0834" transform="rotate(90 169.286 89.6445)" fill="#9333EA"/>
<rect x="38" y="112.25" width="22.6056" height="26.0834" transform="rotate(-90 38 112.25)" fill="#9333EA"/>
<rect x="47.5757" y="61.5749" width="22.6056" height="26.0834" transform="rotate(-46.5943 47.5757 61.5749)" fill="#9333EA"/>
<rect x="127.553" y="141.715" width="22.6056" height="26.0834" transform="rotate(-46.5943 127.553 141.715)" fill="#9333EA"/>
</svg>
